<svg width="87.546" height="20" viewBox="0 0 87.546 20" fill="none" xmlns="http://www.w3.org/2000/svg">
<g>
<path d="M15.1592 7.59903C13.4328 7.59903 12.515 8.24309 12.515 10.1097V16.1086H8.90944V4.15503H12.3833V6.42206C12.9298 5.0228 13.9135 4.13366 15.595 4.06669C15.7702 4.06669 15.9664 4.06669 16.1415 4.08806V7.666C15.7478 7.62183 15.4857 7.59903 15.1578 7.59903" fill="#1A1A1A"/>
<path d="M17.5624 16.11H21.1904V4.15503H17.5624V16.11ZM17.5624 2.93388H21.168V0H17.5624V2.93388Z" fill="#1A1A1A"/>
<path d="M28.9087 13.5537C30.3507 13.5537 31.5306 12.3539 31.5306 10.1325C31.5306 7.91109 30.3507 6.73269 28.9087 6.73269C27.4668 6.73269 26.3079 7.666 26.3079 10.1325C26.3079 12.599 27.4878 13.5537 28.9087 13.5537ZM30.0886 3.88857C33.1042 3.88857 35.2678 6.22115 35.2678 10.1325C35.2678 14.0439 33.1042 16.3993 30.0886 16.3993C28.7994 16.3993 27.2482 15.8207 26.4831 14.5113V20H22.8776V4.15503H26.4831V5.77657C27.2482 4.46566 28.7994 3.88857 30.0886 3.88857Z" fill="#1A1A1A"/>
<path d="M39.9874 0H36.3819V16.11H39.9874V0Z" fill="#1A1A1A"/>
<path d="M49.7586 8.84297C49.7152 7.35395 48.6446 6.59875 47.2895 6.59875C46.0228 6.59875 44.8639 7.2656 44.6677 8.84297H49.7586ZM47.4423 16.3978C43.6182 16.3978 40.9963 14.0197 40.9963 10.0655C40.9963 6.11143 43.8592 3.80023 47.2895 3.80023C51.1795 3.80023 53.5828 6.82246 53.3432 11.0658H44.6243C44.7336 12.7543 46.0228 13.5551 47.3344 13.5551C48.646 13.5551 49.5625 13.0664 49.9786 12.3554H53.2997C52.2515 15.1767 49.8035 16.3993 47.4437 16.3993" fill="#1A1A1A"/>
<path d="M71.4633 8.84297C71.4199 7.35395 70.3493 6.59875 68.9942 6.59875C67.7275 6.59875 66.5686 7.2656 66.3724 8.84297H71.4633ZM69.147 16.3978C65.3228 16.3978 62.701 14.0197 62.701 10.0655C62.701 6.11143 65.5639 3.80023 68.9942 3.80023C72.8842 3.80023 75.2874 6.82246 75.0464 11.0658H66.3276C66.4369 12.7543 67.7261 13.5551 69.0377 13.5551C70.3493 13.5551 71.2657 13.0664 71.6819 12.3554H75.003C73.9534 15.1767 71.5068 16.3993 69.147 16.3993" fill="#1A1A1A"/>
<path d="M83.5915 3.88857C86.6071 3.88857 87.546 5.68823 87.546 8.93274V16.11H83.9405V9.84468C83.9405 8.13337 83.8746 6.73411 82.1272 6.73411C80.5984 6.73411 79.9426 7.77857 79.9426 9.97863V16.1114H76.337V4.15503H79.9426V5.7324C80.4666 4.84326 81.7558 3.88857 83.5915 3.88857Z" fill="#1A1A1A"/>
<path d="M58.2421 13.0351L58.2379 6.75406H61.828V4.15503H58.2379V0.889142H54.6323V9.53406C54.6323 11.0302 54.736 13.0351 57.5583 13.0351C57.5583 13.5551 58.1328 16.3465 62.2358 16.0929V13.0351H58.2421Z" fill="#1A1A1A"/>
<path d="M3.60974 13.0351L3.60554 6.75406H7.19566V4.15503H3.60554V0.889142H0V9.53406C0 11.0302 0.103696 13.0351 2.92591 13.0351C2.92591 13.5551 3.50044 16.3465 7.60343 16.0929V13.0351H3.60974Z" fill="#1A1A1A"/>
</g>
</svg>
